<svg xmlns="http://www.w3.org/2000/svg" xmlns:xlink="http://www.w3.org/1999/xlink" width="805" zoomAndPan="magnify" viewBox="786.75 101.249999125 603.75 603.7499947824074" height="805" preserveAspectRatio="xMidYMid meet" version="1.0"><defs><filter x="0%" y="0%" width="100%" height="100%" id="4e621884af"><feColorMatrix values="0 0 0 0 1 0 0 0 0 1 0 0 0 0 1 0 0 0 1 0" color-interpolation-filters="sRGB"/></filter><clipPath id="30ed8d8836"><path d="M 563.011719 0 L 1440 0 L 1440 810 L 563.011719 810 Z M 563.011719 0 " clip-rule="nonzero"/></clipPath><clipPath id="0ed2c3b141"><path d="M 798 110 L 1388 110 L 1388 700 L 798 700 Z M 798 110 " clip-rule="nonzero"/></clipPath><clipPath id="34f1a1c215"><path d="M 951.585938 110.730469 L 1234.1875 110.730469 C 1236.691406 110.734375 1239.195312 110.792969 1241.695312 110.917969 C 1244.199219 111.039062 1246.695312 111.222656 1249.191406 111.46875 C 1251.683594 111.714844 1254.167969 112.023438 1256.648438 112.390625 C 1259.125 112.757812 1261.59375 113.183594 1264.050781 113.671875 C 1266.507812 114.164062 1268.949219 114.710938 1271.378906 115.320312 C 1273.808594 115.929688 1276.222656 116.597656 1278.621094 117.324219 C 1281.019531 118.050781 1283.394531 118.835938 1285.753906 119.679688 C 1288.113281 120.523438 1290.449219 121.425781 1292.765625 122.382812 C 1295.078125 123.34375 1297.371094 124.359375 1299.632812 125.429688 C 1301.898438 126.5 1304.136719 127.625 1306.34375 128.808594 C 1308.554688 129.988281 1310.734375 131.222656 1312.882812 132.511719 C 1315.03125 133.796875 1317.148438 135.136719 1319.230469 136.53125 C 1321.3125 137.921875 1323.359375 139.363281 1325.371094 140.855469 C 1327.386719 142.347656 1329.359375 143.890625 1331.296875 145.480469 C 1333.230469 147.066406 1335.128906 148.703125 1336.984375 150.386719 C 1338.839844 152.070312 1340.65625 153.796875 1342.425781 155.566406 C 1344.199219 157.339844 1345.925781 159.152344 1347.605469 161.007812 C 1349.289062 162.863281 1350.925781 164.761719 1352.515625 166.699219 C 1354.105469 168.632812 1355.644531 170.609375 1357.136719 172.621094 C 1358.628906 174.632812 1360.070312 176.679688 1361.464844 178.761719 C 1362.855469 180.847656 1364.195312 182.960938 1365.484375 185.109375 C 1366.769531 187.261719 1368.003906 189.4375 1369.1875 191.648438 C 1370.367188 193.859375 1371.492188 196.09375 1372.5625 198.359375 C 1373.636719 200.625 1374.648438 202.914062 1375.609375 205.226562 C 1376.566406 207.542969 1377.46875 209.878906 1378.3125 212.238281 C 1379.15625 214.597656 1379.941406 216.976562 1380.667969 219.371094 C 1381.398438 221.769531 1382.066406 224.183594 1382.671875 226.613281 C 1383.28125 229.042969 1383.832031 231.488281 1384.320312 233.945312 C 1384.808594 236.402344 1385.238281 238.867188 1385.605469 241.347656 C 1385.972656 243.824219 1386.277344 246.308594 1386.523438 248.804688 C 1386.769531 251.296875 1386.953125 253.792969 1387.078125 256.296875 C 1387.199219 258.796875 1387.261719 261.300781 1387.261719 263.808594 L 1387.261719 546.40625 C 1387.261719 548.914062 1387.199219 551.417969 1387.078125 553.917969 C 1386.953125 556.421875 1386.769531 558.917969 1386.523438 561.410156 C 1386.277344 563.90625 1385.972656 566.390625 1385.605469 568.867188 C 1385.238281 571.347656 1384.808594 573.8125 1384.320312 576.269531 C 1383.832031 578.726562 1383.28125 581.171875 1382.671875 583.601562 C 1382.066406 586.03125 1381.398438 588.445312 1380.667969 590.84375 C 1379.941406 593.238281 1379.15625 595.617188 1378.3125 597.976562 C 1377.46875 600.335938 1376.566406 602.671875 1375.609375 604.988281 C 1374.648438 607.300781 1373.636719 609.589844 1372.5625 611.855469 C 1371.492188 614.121094 1370.367188 616.355469 1369.1875 618.566406 C 1368.003906 620.777344 1366.769531 622.953125 1365.484375 625.105469 C 1364.195312 627.253906 1362.855469 629.367188 1361.464844 631.453125 C 1360.070312 633.535156 1358.628906 635.582031 1357.136719 637.59375 C 1355.644531 639.605469 1354.105469 641.582031 1352.515625 643.515625 C 1350.925781 645.453125 1349.289062 647.351562 1347.605469 649.207031 C 1345.925781 651.0625 1344.199219 652.875 1342.425781 654.648438 C 1340.65625 656.417969 1338.839844 658.144531 1336.984375 659.828125 C 1335.128906 661.511719 1333.230469 663.148438 1331.296875 664.734375 C 1329.359375 666.324219 1327.382812 667.867188 1325.371094 669.359375 C 1323.359375 670.851562 1321.3125 672.292969 1319.230469 673.683594 C 1317.148438 675.078125 1315.03125 676.417969 1312.882812 677.703125 C 1310.734375 678.992188 1308.554688 680.226562 1306.34375 681.40625 C 1304.136719 682.589844 1301.898438 683.714844 1299.632812 684.785156 C 1297.371094 685.855469 1295.078125 686.871094 1292.765625 687.832031 C 1290.449219 688.789062 1288.113281 689.691406 1285.753906 690.535156 C 1283.394531 691.378906 1281.019531 692.164062 1278.621094 692.890625 C 1276.222656 693.617188 1273.808594 694.285156 1271.378906 694.894531 C 1268.949219 695.503906 1266.507812 696.050781 1264.050781 696.542969 C 1261.59375 697.03125 1259.125 697.457031 1256.648438 697.824219 C 1254.167969 698.191406 1251.683594 698.5 1249.191406 698.746094 C 1246.695312 698.992188 1244.199219 699.175781 1241.695312 699.296875 C 1239.195312 699.421875 1236.691406 699.480469 1234.1875 699.480469 L 951.585938 699.480469 C 949.082031 699.480469 946.578125 699.421875 944.074219 699.296875 C 941.574219 699.175781 939.074219 698.992188 936.582031 698.746094 C 934.089844 698.5 931.601562 698.191406 929.125 697.824219 C 926.648438 697.457031 924.179688 697.03125 921.722656 696.542969 C 919.265625 696.050781 916.820312 695.503906 914.390625 694.894531 C 911.960938 694.285156 909.546875 693.617188 907.152344 692.890625 C 904.753906 692.164062 902.375 691.378906 900.015625 690.535156 C 897.65625 689.691406 895.320312 688.789062 893.007812 687.832031 C 890.691406 686.871094 888.402344 685.855469 886.136719 684.785156 C 883.875 683.714844 881.636719 682.589844 879.425781 681.40625 C 877.21875 680.226562 875.039062 678.992188 872.890625 677.703125 C 870.742188 676.417969 868.625 675.078125 866.542969 673.683594 C 864.457031 672.292969 862.410156 670.851562 860.398438 669.359375 C 858.386719 667.867188 856.414062 666.324219 854.476562 664.734375 C 852.539062 663.148438 850.644531 661.511719 848.785156 659.828125 C 846.929688 658.144531 845.117188 656.417969 843.34375 654.648438 C 841.574219 652.875 839.847656 651.0625 838.164062 649.207031 C 836.480469 647.351562 834.847656 645.453125 833.257812 643.515625 C 831.667969 641.582031 830.128906 639.605469 828.636719 637.59375 C 827.140625 635.582031 825.699219 633.535156 824.308594 631.453125 C 822.917969 629.367188 821.578125 627.253906 820.289062 625.105469 C 819 622.953125 817.765625 620.777344 816.585938 618.566406 C 815.40625 616.355469 814.277344 614.121094 813.207031 611.855469 C 812.136719 609.589844 811.121094 607.300781 810.164062 604.988281 C 809.203125 602.671875 808.304688 600.335938 807.457031 597.976562 C 806.613281 595.617188 805.828125 593.238281 805.101562 590.84375 C 804.375 588.445312 803.707031 586.03125 803.097656 583.601562 C 802.488281 581.171875 801.941406 578.726562 801.453125 576.269531 C 800.964844 573.8125 800.535156 571.347656 800.167969 568.867188 C 799.800781 566.390625 799.492188 563.90625 799.246094 561.410156 C 799.003906 558.917969 798.816406 556.421875 798.695312 553.917969 C 798.574219 551.417969 798.511719 548.914062 798.511719 546.40625 L 798.511719 263.808594 C 798.511719 261.300781 798.574219 258.796875 798.695312 256.296875 C 798.816406 253.792969 799.003906 251.296875 799.246094 248.804688 C 799.492188 246.308594 799.800781 243.824219 800.167969 241.347656 C 800.535156 238.867188 800.964844 236.402344 801.453125 233.945312 C 801.941406 231.488281 802.488281 229.042969 803.097656 226.613281 C 803.707031 224.183594 804.375 221.769531 805.101562 219.371094 C 805.828125 216.976562 806.613281 214.597656 807.457031 212.238281 C 808.304688 209.878906 809.203125 207.542969 810.164062 205.226562 C 811.121094 202.914062 812.136719 200.625 813.207031 198.359375 C 814.277344 196.09375 815.40625 193.859375 816.585938 191.648438 C 817.765625 189.4375 819 187.261719 820.289062 185.109375 C 821.578125 182.960938 822.917969 180.847656 824.308594 178.761719 C 825.699219 176.679688 827.140625 174.632812 828.636719 172.621094 C 830.128906 170.609375 831.667969 168.632812 833.257812 166.699219 C 834.847656 164.761719 836.480469 162.863281 838.164062 161.007812 C 839.847656 159.152344 841.574219 157.339844 843.34375 155.566406 C 845.117188 153.796875 846.929688 152.070312 848.785156 150.386719 C 850.644531 148.703125 852.539062 147.066406 854.476562 145.480469 C 856.414062 143.890625 858.386719 142.347656 860.398438 140.855469 C 862.410156 139.363281 864.457031 137.921875 866.542969 136.53125 C 868.625 135.136719 870.742188 133.796875 872.890625 132.511719 C 875.039062 131.222656 877.21875 129.988281 879.425781 128.808594 C 881.636719 127.625 883.875 126.5 886.136719 125.429688 C 888.402344 124.359375 890.691406 123.34375 893.007812 122.382812 C 895.320312 121.425781 897.65625 120.523438 900.015625 119.679688 C 902.375 118.835938 904.753906 118.050781 907.152344 117.324219 C 909.546875 116.597656 911.960938 115.929688 914.390625 115.320312 C 916.820312 114.710938 919.265625 114.164062 921.722656 113.671875 C 924.179688 113.183594 926.648438 112.757812 929.125 112.390625 C 931.601562 112.023438 934.089844 111.714844 936.582031 111.46875 C 939.074219 111.222656 941.574219 111.039062 944.074219 110.917969 C 946.578125 110.792969 949.082031 110.734375 951.585938 110.730469 Z M 951.585938 110.730469 " clip-rule="nonzero"/></clipPath><linearGradient x1="0" gradientTransform="matrix(588.750115, 0, 0, 588.749995, 798.510859, 110.732439)" y1="-0.0000000377305" x2="0" gradientUnits="userSpaceOnUse" y2="1" id="fda1723b76"><stop stop-opacity="1" stop-color="rgb(100%, 41.958618%, 32.159424%)" offset="0"/><stop stop-opacity="1" stop-color="rgb(99.911499%, 41.786194%, 32.048035%)" offset="0.0078125"/><stop stop-opacity="1" stop-color="rgb(99.734497%, 41.441345%, 31.825256%)" offset="0.015625"/><stop stop-opacity="1" stop-color="rgb(99.559021%, 41.098022%, 31.604004%)" offset="0.0234375"/><stop stop-opacity="1" stop-color="rgb(99.382019%, 40.753174%, 31.381226%)" offset="0.03125"/><stop stop-opacity="1" stop-color="rgb(99.206543%, 40.408325%, 31.158447%)" offset="0.0390625"/><stop stop-opacity="1" stop-color="rgb(99.029541%, 40.063477%, 30.937195%)" offset="0.046875"/><stop stop-opacity="1" stop-color="rgb(98.854065%, 39.718628%, 30.714417%)" offset="0.0546875"/><stop stop-opacity="1" stop-color="rgb(98.677063%, 39.373779%, 30.491638%)" offset="0.0625"/><stop stop-opacity="1" stop-color="rgb(98.501587%, 39.028931%, 30.270386%)" offset="0.0703125"/><stop stop-opacity="1" stop-color="rgb(98.324585%, 38.684082%, 30.047607%)" offset="0.078125"/><stop stop-opacity="1" stop-color="rgb(98.149109%, 38.339233%, 29.824829%)" offset="0.0859375"/><stop stop-opacity="1" stop-color="rgb(97.972107%, 37.994385%, 29.603577%)" offset="0.09375"/><stop stop-opacity="1" stop-color="rgb(97.796631%, 37.649536%, 29.380798%)" offset="0.101562"/><stop stop-opacity="1" stop-color="rgb(97.621155%, 37.304688%, 29.15802%)" offset="0.109375"/><stop stop-opacity="1" stop-color="rgb(97.444153%, 36.961365%, 28.936768%)" offset="0.117187"/><stop stop-opacity="1" stop-color="rgb(97.268677%, 36.616516%, 28.713989%)" offset="0.125"/><stop stop-opacity="1" stop-color="rgb(97.091675%, 36.271667%, 28.491211%)" offset="0.132812"/><stop stop-opacity="1" stop-color="rgb(96.916199%, 35.926819%, 28.269958%)" offset="0.140625"/><stop stop-opacity="1" stop-color="rgb(96.739197%, 35.58197%, 28.04718%)" offset="0.148438"/><stop stop-opacity="1" stop-color="rgb(96.563721%, 35.237122%, 27.824402%)" offset="0.15625"/><stop stop-opacity="1" stop-color="rgb(96.386719%, 34.892273%, 27.603149%)" offset="0.164062"/><stop stop-opacity="1" stop-color="rgb(96.211243%, 34.547424%, 27.380371%)" offset="0.171875"/><stop stop-opacity="1" stop-color="rgb(96.034241%, 34.202576%, 27.157593%)" offset="0.179688"/><stop stop-opacity="1" stop-color="rgb(95.858765%, 33.857727%, 26.93634%)" offset="0.1875"/><stop stop-opacity="1" stop-color="rgb(95.683289%, 33.512878%, 26.713562%)" offset="0.195312"/><stop stop-opacity="1" stop-color="rgb(95.506287%, 33.16803%, 26.490784%)" offset="0.203125"/><stop stop-opacity="1" stop-color="rgb(95.330811%, 32.823181%, 26.269531%)" offset="0.210937"/><stop stop-opacity="1" stop-color="rgb(95.153809%, 32.479858%, 26.046753%)" offset="0.21875"/><stop stop-opacity="1" stop-color="rgb(94.978333%, 32.13501%, 25.823975%)" offset="0.226562"/><stop stop-opacity="1" stop-color="rgb(94.801331%, 31.790161%, 25.602722%)" offset="0.234375"/><stop stop-opacity="1" stop-color="rgb(94.625854%, 31.445312%, 25.379944%)" offset="0.242187"/><stop stop-opacity="1" stop-color="rgb(94.448853%, 31.100464%, 25.157166%)" offset="0.25"/><stop stop-opacity="1" stop-color="rgb(94.273376%, 30.755615%, 24.935913%)" offset="0.257812"/><stop stop-opacity="1" stop-color="rgb(94.096375%, 30.410767%, 24.713135%)" offset="0.265625"/><stop stop-opacity="1" stop-color="rgb(93.920898%, 30.065918%, 24.490356%)" offset="0.273438"/><stop stop-opacity="1" stop-color="rgb(93.745422%, 29.721069%, 24.269104%)" offset="0.28125"/><stop stop-opacity="1" stop-color="rgb(93.56842%, 29.376221%, 24.046326%)" offset="0.289062"/><stop stop-opacity="1" stop-color="rgb(93.392944%, 29.031372%, 23.823547%)" offset="0.296875"/><stop stop-opacity="1" stop-color="rgb(93.215942%, 28.686523%, 23.602295%)" offset="0.304688"/><stop stop-opacity="1" stop-color="rgb(93.040466%, 28.343201%, 23.379517%)" offset="0.3125"/><stop stop-opacity="1" stop-color="rgb(92.863464%, 27.998352%, 23.156738%)" offset="0.320312"/><stop stop-opacity="1" stop-color="rgb(92.687988%, 27.653503%, 22.935486%)" offset="0.328125"/><stop stop-opacity="1" stop-color="rgb(92.510986%, 27.308655%, 22.712708%)" offset="0.335938"/><stop stop-opacity="1" stop-color="rgb(92.33551%, 26.963806%, 22.489929%)" offset="0.34375"/><stop stop-opacity="1" stop-color="rgb(92.158508%, 26.618958%, 22.268677%)" offset="0.351562"/><stop stop-opacity="1" stop-color="rgb(91.983032%, 26.274109%, 22.045898%)" offset="0.359375"/><stop stop-opacity="1" stop-color="rgb(91.807556%, 25.92926%, 21.82312%)" offset="0.367188"/><stop stop-opacity="1" stop-color="rgb(91.630554%, 25.584412%, 21.601868%)" offset="0.375"/><stop stop-opacity="1" stop-color="rgb(91.455078%, 25.239563%, 21.379089%)" offset="0.382812"/><stop stop-opacity="1" stop-color="rgb(91.278076%, 24.894714%, 21.156311%)" offset="0.390625"/><stop stop-opacity="1" stop-color="rgb(91.1026%, 24.549866%, 20.935059%)" offset="0.398438"/><stop stop-opacity="1" stop-color="rgb(90.844727%, 24.261475%, 20.73822%)" offset="0.40625"/><stop stop-opacity="1" stop-color="rgb(90.487671%, 24.043274%, 20.573425%)" offset="0.414062"/><stop stop-opacity="1" stop-color="rgb(90.109253%, 23.838806%, 20.414734%)" offset="0.421875"/><stop stop-opacity="1" stop-color="rgb(89.732361%, 23.635864%, 20.257568%)" offset="0.429687"/><stop stop-opacity="1" stop-color="rgb(89.353943%, 23.431396%, 20.098877%)" offset="0.4375"/><stop stop-opacity="1" stop-color="rgb(88.975525%, 23.226929%, 19.940186%)" offset="0.445312"/><stop stop-opacity="1" stop-color="rgb(88.598633%, 23.022461%, 19.78302%)" offset="0.453125"/><stop stop-opacity="1" stop-color="rgb(88.220215%, 22.817993%, 19.624329%)" offset="0.460937"/><stop stop-opacity="1" stop-color="rgb(87.843323%, 22.615051%, 19.465637%)" offset="0.46875"/><stop stop-opacity="1" stop-color="rgb(87.464905%, 22.410583%, 19.306946%)" offset="0.476562"/><stop stop-opacity="1" stop-color="rgb(87.086487%, 22.206116%, 19.14978%)" offset="0.484375"/><stop stop-opacity="1" stop-color="rgb(86.709595%, 22.001648%, 18.991089%)" offset="0.492187"/><stop stop-opacity="1" stop-color="rgb(86.331177%, 21.79718%, 18.832397%)" offset="0.5"/><stop stop-opacity="1" stop-color="rgb(85.952759%, 21.594238%, 18.675232%)" offset="0.507812"/><stop stop-opacity="1" stop-color="rgb(85.575867%, 21.389771%, 18.516541%)" offset="0.515625"/><stop stop-opacity="1" stop-color="rgb(85.197449%, 21.185303%, 18.357849%)" offset="0.523438"/><stop stop-opacity="1" stop-color="rgb(84.819031%, 20.980835%, 18.200684%)" offset="0.53125"/><stop stop-opacity="1" stop-color="rgb(84.442139%, 20.776367%, 18.041992%)" offset="0.539062"/><stop stop-opacity="1" stop-color="rgb(84.063721%, 20.573425%, 17.883301%)" offset="0.546875"/><stop stop-opacity="1" stop-color="rgb(83.686829%, 20.368958%, 17.726135%)" offset="0.554688"/><stop stop-opacity="1" stop-color="rgb(83.308411%, 20.16449%, 17.567444%)" offset="0.5625"/><stop stop-opacity="1" stop-color="rgb(82.929993%, 19.960022%, 17.408752%)" offset="0.570312"/><stop stop-opacity="1" stop-color="rgb(82.553101%, 19.755554%, 17.251587%)" offset="0.578125"/><stop stop-opacity="1" stop-color="rgb(82.174683%, 19.552612%, 17.092896%)" offset="0.585938"/><stop stop-opacity="1" stop-color="rgb(81.796265%, 19.348145%, 16.934204%)" offset="0.59375"/><stop stop-opacity="1" stop-color="rgb(81.419373%, 19.143677%, 16.777039%)" offset="0.601562"/><stop stop-opacity="1" stop-color="rgb(81.040955%, 18.939209%, 16.618347%)" offset="0.609375"/><stop stop-opacity="1" stop-color="rgb(80.662537%, 18.734741%, 16.459656%)" offset="0.617188"/><stop stop-opacity="1" stop-color="rgb(80.285645%, 18.531799%, 16.30249%)" offset="0.625"/><stop stop-opacity="1" stop-color="rgb(79.907227%, 18.327332%, 16.143799%)" offset="0.632812"/><stop stop-opacity="1" stop-color="rgb(79.530334%, 18.122864%, 15.985107%)" offset="0.640625"/><stop stop-opacity="1" stop-color="rgb(79.151917%, 17.918396%, 15.827942%)" offset="0.648438"/><stop stop-opacity="1" stop-color="rgb(78.773499%, 17.713928%, 15.66925%)" offset="0.65625"/><stop stop-opacity="1" stop-color="rgb(78.396606%, 17.510986%, 15.510559%)" offset="0.664062"/><stop stop-opacity="1" stop-color="rgb(78.018188%, 17.306519%, 15.351868%)" offset="0.671875"/><stop stop-opacity="1" stop-color="rgb(77.639771%, 17.102051%, 15.194702%)" offset="0.679688"/><stop stop-opacity="1" stop-color="rgb(77.262878%, 16.897583%, 15.036011%)" offset="0.6875"/><stop stop-opacity="1" stop-color="rgb(76.88446%, 16.693115%, 14.877319%)" offset="0.695312"/><stop stop-opacity="1" stop-color="rgb(76.506042%, 16.490173%, 14.720154%)" offset="0.703125"/><stop stop-opacity="1" stop-color="rgb(76.12915%, 16.285706%, 14.561462%)" offset="0.710938"/><stop stop-opacity="1" stop-color="rgb(75.750732%, 16.081238%, 14.402771%)" offset="0.71875"/><stop stop-opacity="1" stop-color="rgb(75.37384%, 15.87677%, 14.245605%)" offset="0.726562"/><stop stop-opacity="1" stop-color="rgb(74.995422%, 15.672302%, 14.086914%)" offset="0.734375"/><stop stop-opacity="1" stop-color="rgb(74.617004%, 15.46936%, 13.928223%)" offset="0.742188"/><stop stop-opacity="1" stop-color="rgb(74.240112%, 15.264893%, 13.771057%)" offset="0.75"/><stop stop-opacity="1" stop-color="rgb(73.861694%, 15.060425%, 13.612366%)" offset="0.757812"/><stop stop-opacity="1" stop-color="rgb(73.483276%, 14.855957%, 13.453674%)" offset="0.765625"/><stop stop-opacity="1" stop-color="rgb(73.106384%, 14.651489%, 13.296509%)" offset="0.773438"/><stop stop-opacity="1" stop-color="rgb(72.727966%, 14.448547%, 13.137817%)" offset="0.78125"/><stop stop-opacity="1" stop-color="rgb(72.349548%, 14.24408%, 12.979126%)" offset="0.789063"/><stop stop-opacity="1" stop-color="rgb(71.972656%, 14.039612%, 12.82196%)" offset="0.796875"/><stop stop-opacity="1" stop-color="rgb(71.594238%, 13.835144%, 12.663269%)" offset="0.804688"/><stop stop-opacity="1" stop-color="rgb(71.217346%, 13.630676%, 12.504578%)" offset="0.8125"/><stop stop-opacity="1" stop-color="rgb(70.838928%, 13.427734%, 12.347412%)" offset="0.820313"/><stop stop-opacity="1" stop-color="rgb(70.46051%, 13.223267%, 12.188721%)" offset="0.828125"/><stop stop-opacity="1" stop-color="rgb(70.083618%, 13.018799%, 12.030029%)" offset="0.835938"/><stop stop-opacity="1" stop-color="rgb(69.7052%, 12.814331%, 11.872864%)" offset="0.84375"/><stop stop-opacity="1" stop-color="rgb(69.326782%, 12.609863%, 11.714172%)" offset="0.851562"/><stop stop-opacity="1" stop-color="rgb(68.94989%, 12.406921%, 11.555481%)" offset="0.859375"/><stop stop-opacity="1" stop-color="rgb(68.571472%, 12.202454%, 11.39679%)" offset="0.867188"/><stop stop-opacity="1" stop-color="rgb(68.193054%, 11.997986%, 11.239624%)" offset="0.875"/><stop stop-opacity="1" stop-color="rgb(67.816162%, 11.793518%, 11.080933%)" offset="0.882812"/><stop stop-opacity="1" stop-color="rgb(67.437744%, 11.58905%, 10.922241%)" offset="0.890625"/><stop stop-opacity="1" stop-color="rgb(67.060852%, 11.384583%, 10.765076%)" offset="0.898438"/><stop stop-opacity="1" stop-color="rgb(66.682434%, 11.181641%, 10.606384%)" offset="0.90625"/><stop stop-opacity="1" stop-color="rgb(66.304016%, 10.977173%, 10.447693%)" offset="0.914062"/><stop stop-opacity="1" stop-color="rgb(65.927124%, 10.772705%, 10.290527%)" offset="0.921875"/><stop stop-opacity="1" stop-color="rgb(65.548706%, 10.568237%, 10.131836%)" offset="0.929688"/><stop stop-opacity="1" stop-color="rgb(65.170288%, 10.36377%, 9.973145%)" offset="0.9375"/><stop stop-opacity="1" stop-color="rgb(64.793396%, 10.160828%, 9.815979%)" offset="0.945312"/><stop stop-opacity="1" stop-color="rgb(64.414978%, 9.95636%, 9.657288%)" offset="0.953125"/><stop stop-opacity="1" stop-color="rgb(64.03656%, 9.751892%, 9.498596%)" offset="0.960938"/><stop stop-opacity="1" stop-color="rgb(63.659668%, 9.547424%, 9.341431%)" offset="0.96875"/><stop stop-opacity="1" stop-color="rgb(63.28125%, 9.342957%, 9.182739%)" offset="0.976562"/><stop stop-opacity="1" stop-color="rgb(62.904358%, 9.140015%, 9.024048%)" offset="0.984375"/><stop stop-opacity="1" stop-color="rgb(62.52594%, 8.935547%, 8.866882%)" offset="0.992188"/><stop stop-opacity="1" stop-color="rgb(62.147522%, 8.731079%, 8.708191%)" offset="1"/></linearGradient><mask id="1c839169a7"><g filter="url(#4e621884af)"><rect x="-144" width="1728" fill="#000000" y="-80.999999" height="971.999992" fill-opacity="0.95"/></g></mask><clipPath id="691fa0fc3f"><path d="M 0.960938 0.679688 L 636.960938 0.679688 L 636.960938 139 L 0.960938 139 Z M 0.960938 0.679688 " clip-rule="nonzero"/></clipPath><clipPath id="092c20452b"><path d="M 0.960938 75 L 636.960938 75 L 636.960938 256 L 0.960938 256 Z M 0.960938 75 " clip-rule="nonzero"/></clipPath><clipPath id="d3b98d9fe2"><path d="M 0.960938 193 L 636.960938 193 L 636.960938 374 L 0.960938 374 Z M 0.960938 193 " clip-rule="nonzero"/></clipPath><clipPath id="bab07a8d20"><path d="M 0.960938 311 L 636.960938 311 L 636.960938 448.519531 L 0.960938 448.519531 Z M 0.960938 311 " clip-rule="nonzero"/></clipPath><clipPath id="688b790ad7"><rect x="0" width="637" y="0" height="449"/></clipPath></defs><g clip-path="url(#0ed2c3b141)"><g clip-path="url(#34f1a1c215)"><path fill="url(#fda1723b76)" d="M 798.511719 110.730469 L 798.511719 699.480469 L 1387.261719 699.480469 L 1387.261719 110.730469 Z M 798.511719 110.730469 " fill-rule="nonzero"/></g></g><g mask="url(#1c839169a7)"><g transform="matrix(1, 0, 0, 1, 774, 157)"><g clip-path="url(#688b790ad7)"><g clip-path="url(#691fa0fc3f)"><path stroke-linecap="butt" transform="matrix(2.355, 0, 0, 2.355, -210.989201, -340.642568)" fill="none" stroke-linejoin="miter" d="M 100.000376 165.000502 C 141.667037 151.666173 183.333698 151.666173 225.000358 165.000502 C 266.667019 178.333172 308.33368 178.333172 350.000341 165.000502 " stroke="#ffffff" stroke-width="5" stroke-opacity="1" stroke-miterlimit="4"/></g><g clip-path="url(#092c20452b)"><path stroke-linecap="butt" transform="matrix(2.355, 0, 0, 2.355, -210.989201, -340.642568)" fill="none" stroke-linejoin="miter" d="M 100.000376 215.000504 C 141.667037 201.666175 183.333698 201.666175 225.000358 215.000504 C 266.667019 228.333175 308.33368 228.333175 350.000341 215.000504 " stroke="#ffffff" stroke-width="5" stroke-opacity="1" stroke-miterlimit="4"/></g><g clip-path="url(#d3b98d9fe2)"><path stroke-linecap="butt" transform="matrix(2.355, 0, 0, 2.355, -210.989201, -340.642568)" fill="none" stroke-linejoin="miter" d="M 100.000376 265.000507 C 141.667037 251.666178 183.333698 251.666178 225.000358 265.000507 C 266.667019 278.333177 308.33368 278.333177 350.000341 265.000507 " stroke="#ffffff" stroke-width="5" stroke-opacity="1" stroke-miterlimit="4"/></g><g clip-path="url(#bab07a8d20)"><path stroke-linecap="butt" transform="matrix(2.355, 0, 0, 2.355, -210.989201, -340.642568)" fill="none" stroke-linejoin="miter" d="M 100.000376 315.000509 C 141.667037 301.66618 183.333698 301.66618 225.000358 315.000509 C 266.667019 328.33318 308.33368 328.33318 350.000341 315.000509 " stroke="#ffffff" stroke-width="5" stroke-opacity="1" stroke-miterlimit="4"/></g></g></g></g></svg>